<svg width="29" height="29" viewBox="0 0 29 29" fill="none" xmlns="http://www.w3.org/2000/svg">
<g clip-path="url(#clip0)">
<path d="M21.6494 0.735596H6.69835C5.71693 0.735596 4.91846 1.53407 4.91846 2.51548V27.9321C4.91846 28.3194 5.12812 28.6761 5.4663 28.8648C5.62827 28.9552 5.80735 29.0001 5.98638 29.0001C6.18147 29.0001 6.37584 28.947 6.54775 28.841L14.176 24.1314L21.8031 28.8068C22.1327 29.0093 22.546 29.0175 22.8831 28.8282C23.2202 28.6395 23.4292 28.2832 23.4292 27.8966V2.51548C23.4292 1.53407 22.6308 0.735596 21.6494 0.735596ZM21.2934 25.9888L14.7324 21.9667C14.3885 21.756 13.9556 21.757 13.6128 21.9684L7.0543 26.0177V2.87144H21.2934V25.9888Z" fill="black"/>
</g>
<defs>
<clipPath id="clip0">
<rect width="28.2645" height="28.2645" fill="white" transform="translate(0.0410156 0.735596)"/>
</clipPath>
</defs>
</svg>
