<svg width="29" height="29" viewBox="0 0 29 29" fill="none" xmlns="http://www.w3.org/2000/svg">
<g clip-path="url(#clip0)">
<path d="M26.3341 4.71978C24.94 3.13797 23.0061 2.26685 20.8885 2.26685C17.9104 2.26685 16.0249 4.04552 14.9676 5.53768C14.6933 5.92489 14.46 6.31314 14.2641 6.67848C14.0681 6.31314 13.8349 5.92489 13.5605 5.53768C12.5032 4.04552 10.6177 2.26685 7.63958 2.26685C5.52207 2.26685 3.5881 3.13802 2.19398 4.71984C0.864228 6.22878 0.131836 8.24969 0.131836 10.4103C0.131836 12.7621 1.05004 14.9496 3.02149 17.2942C4.78344 19.3898 7.31824 21.5498 10.2535 24.051C11.3473 24.9831 12.4783 25.9469 13.6825 27.0005L13.7187 27.0322C13.8748 27.1689 14.0694 27.2372 14.2641 27.2372C14.4587 27.2372 14.6534 27.1688 14.8095 27.0322L14.8456 27.0005C16.0498 25.9469 17.1809 24.9831 18.2748 24.0509C21.2099 21.5498 23.7447 19.3898 25.5066 17.2942C27.4781 14.9495 28.3963 12.7621 28.3963 10.4103C28.3963 8.24969 27.6639 6.22878 26.3341 4.71978ZM17.2005 22.7905C16.2576 23.5939 15.2873 24.4208 14.2641 25.3103C13.2409 24.4209 12.2705 23.594 11.3274 22.7904C5.58296 17.8953 1.78796 14.6614 1.78796 10.4103C1.78796 8.65312 2.3734 7.02107 3.43646 5.81481C4.51172 4.59486 6.00438 3.92297 7.63958 3.92297C9.91007 3.92297 11.3778 5.32173 12.2092 6.49514C12.9549 7.54755 13.344 8.60846 13.4767 9.0157C13.5878 9.35659 13.9056 9.58729 14.2641 9.58729C14.6226 9.58729 14.9404 9.35659 15.0514 9.0157C15.1841 8.60846 15.5732 7.54755 16.319 6.49509C17.1504 5.32173 18.6181 3.92297 20.8885 3.92297C22.5237 3.92297 24.0164 4.59486 25.0916 5.81481C26.1547 7.02107 26.7402 8.65312 26.7402 10.4103C26.7402 14.6614 22.9452 17.8953 17.2005 22.7905Z" fill="black"/>
</g>
<defs>
<clipPath id="clip0">
<rect width="28.2645" height="28.2645" fill="white" transform="translate(0.131836 0.619873)"/>
</clipPath>
</defs>
</svg>
