<svg width="29" height="29" viewBox="0 0 29 29" fill="none" xmlns="http://www.w3.org/2000/svg">
<g clip-path="url(#clip0)">
<path fill-rule="evenodd" clip-rule="evenodd" d="M14.6615 0.619873C6.85703 0.619873 0.529297 6.15615 0.529297 12.9856C0.529297 16.8888 2.60055 20.3635 5.82888 22.6299V28.8843L12.0197 25.1278C12.8765 25.2692 13.7579 25.3513 14.6615 25.3513C22.467 25.3513 28.7938 19.815 28.7938 12.9856C28.7938 6.15615 22.467 0.619873 14.6615 0.619873ZM11.6761 23.2606C12.6336 23.4646 13.6299 23.5847 14.6615 23.5847C21.491 23.5847 27.0272 18.839 27.0272 12.9856C27.0272 7.1322 21.491 2.3864 14.6615 2.3864C7.8321 2.3864 2.29583 7.1322 2.29583 12.9856C2.29583 16.577 4.38564 19.7461 7.57329 21.6636L7.51764 25.7602L11.6761 23.2606Z" fill="#333333"/>
</g>
<defs>
<clipPath id="clip0">
<rect width="28.2645" height="28.2645" fill="white" transform="translate(0.529297 0.619873)"/>
</clipPath>
</defs>
</svg>
