<svg width="30" height="29" viewBox="0 0 30 29" fill="none" xmlns="http://www.w3.org/2000/svg">
<path d="M28.7196 13.4602C28.4292 12.8605 27.945 12.3764 27.3454 12.086L5.00399 1.27509C3.53224 0.56206 1.76121 1.17718 1.04818 2.64892C0.684923 3.39879 0.654387 4.26705 0.964143 5.04057L4.84905 14.7509L0.964143 24.4623C0.359031 25.9857 1.10346 27.7112 2.62686 28.3163C2.97131 28.4531 3.33838 28.5242 3.70904 28.5258C4.15748 28.5258 4.60014 28.4246 5.00399 28.2297L27.3453 17.4159C28.8172 16.7031 29.4325 14.932 28.7196 13.4602ZM4.14429 26.4501C3.65363 26.6877 3.06333 26.4825 2.8258 25.9918C2.70476 25.7419 2.6947 25.4525 2.79799 25.1946L6.58024 15.7379H26.2823L4.14429 26.4501ZM6.5803 13.7639L2.79804 4.30719C2.64062 3.93023 2.73836 3.49491 3.04181 3.22148C3.33555 2.93526 3.77908 2.86811 4.14429 3.05468L26.2823 13.7639H6.5803Z" fill="black"/>
</svg>
