<svg width="169" height="194" viewBox="0 0 169 194" fill="none" xmlns="http://www.w3.org/2000/svg">
<g opacity="0.6">
<path d="M168.817 -38.8643L168.817 38.597L85.1066 38.5971V38.5971C85.1065 -4.18364 122.585 -38.8643 168.817 -38.8643V-38.8643Z" fill="white" fill-opacity="0.25"/>
<path d="M1.39551 38.5969L85.1064 38.5969L85.1064 116.058V116.058C38.8741 116.058 1.39551 81.3776 1.39551 38.5969V38.5969Z" fill="white" fill-opacity="0.25"/>
<path d="M85.1064 116.058L168.817 116.058L168.817 193.52V193.52C122.585 193.52 85.1064 158.839 85.1064 116.058V116.058Z" fill="white" fill-opacity="0.25"/>
<path fill-rule="evenodd" clip-rule="evenodd" d="M95.7355 116.059L102.832 116.059L86.6658 101.099C86.2708 102.967 85.9483 104.86 85.7013 106.773L95.7355 116.059ZM85.3113 110.592C85.1752 112.398 85.1061 114.221 85.1061 116.059L91.2194 116.059L85.3113 110.592ZM87.4784 97.6722L107.348 116.059L114.445 116.059L89.0328 92.5438C88.4533 94.229 87.9343 95.9392 87.4784 97.6722ZM90.1836 89.4298L118.961 116.059L126.058 116.059L92.2247 84.7516C91.4914 86.2855 90.8104 87.8455 90.1836 89.4298ZM93.6623 81.903L130.574 116.059L137.67 116.059L96.126 77.6159C95.2581 79.018 94.4363 80.4477 93.6623 81.903ZM97.818 75.0028L142.186 116.059L149.283 116.059L100.664 71.0695C99.6736 72.352 98.7243 73.6636 97.818 75.0028ZM102.591 68.6734L153.799 116.059L160.896 116.059L105.796 65.0721C104.689 66.242 103.62 67.443 102.591 68.6734ZM107.946 62.8832L165.412 116.059L168.817 116.059L168.817 112.643L111.499 59.6037C110.28 60.664 109.095 61.7577 107.946 62.8832ZM113.87 57.6188L168.817 108.464L168.817 101.897L117.77 54.6613C116.438 55.6114 115.137 56.5977 113.87 57.6188ZM120.365 52.8836L168.817 97.7182L168.817 91.1513L124.625 50.2585C123.175 51.0942 121.754 51.9698 120.365 52.8836ZM127.455 48.6982L168.817 86.9724L168.817 80.4056L132.098 46.4277C130.522 47.1406 128.973 47.8981 127.455 48.6982ZM135.183 45.1035L168.817 76.2267L168.817 69.6598L140.249 43.2251C138.534 43.8014 136.844 44.4282 135.183 45.1035ZM143.622 42.1672L168.817 65.4809L168.817 58.9141L149.178 40.741C147.3 41.1586 145.448 41.6347 143.622 42.1672ZM152.89 39.9975L168.817 54.7352L168.817 48.1684L159.039 39.1201C156.965 39.3434 154.915 39.6367 152.89 39.9975ZM163.177 38.7703L168.817 43.9895L168.817 38.5973C166.921 38.5973 165.041 38.6556 163.177 38.7703Z" fill="white" fill-opacity="0.25"/>
<path fill-rule="evenodd" clip-rule="evenodd" d="M73.0761 -38.8643L65.9795 -38.8643L82.1502 -23.9007C82.5454 -25.7689 82.8679 -27.6611 83.1151 -29.5748L73.0761 -38.8643ZM83.5052 -33.3926C83.6415 -35.2001 83.7108 -37.0247 83.7108 -38.8643L77.5921 -38.8643L83.5052 -33.3926ZM81.3375 -20.474L61.4634 -38.8643L54.3668 -38.8643L79.7828 -15.3457C80.3624 -17.0308 80.8814 -18.741 81.3375 -20.474ZM78.6318 -12.2318L49.8507 -38.8643L42.7541 -38.8643L76.5906 -7.5539C77.3239 -9.0877 78.005 -10.6477 78.6318 -12.2318ZM75.1528 -4.7054L38.238 -38.8643L31.1414 -38.8643L72.689 -0.418427C73.5569 -1.82049 74.3788 -3.25007 75.1528 -4.7054ZM70.9968 2.19461L26.6253 -38.8643L19.5287 -38.8643L68.1506 6.12772C69.1412 4.84526 70.0905 3.53367 70.9968 2.19461ZM66.2238 8.52366L15.0126 -38.8643L7.91599 -38.8643L63.0188 12.1248C64.1252 10.955 65.1941 9.75406 66.2238 8.52366ZM60.8682 14.3136L3.39995 -38.8643L0 -38.8643L6.88098e-07 -35.4435L57.3155 17.593C58.5346 16.5328 59.7194 15.4391 60.8682 14.3136ZM54.9444 19.5778L1.52871e-06 -31.2646L2.84967e-06 -24.6978L51.0437 22.5352C52.3763 21.5852 53.6771 20.5988 54.9444 19.5778ZM48.4487 24.3128L3.69028e-06 -20.5189L5.01124e-06 -13.9521L44.1888 26.9378C45.639 26.1021 47.0595 25.2266 48.4487 24.3128ZM41.3587 28.4979L5.85185e-06 -9.77317L7.17282e-06 -3.20633L36.7157 30.7683C38.2918 30.0554 39.8401 29.298 41.3587 28.4979ZM33.6305 32.0923L8.01343e-06 0.972572L9.33439e-06 7.53941L28.5636 33.9706C30.2794 33.3943 31.9691 32.7676 33.6305 32.0923ZM25.1907 35.0283L1.0175e-05 11.7183L1.1496e-05 18.2851L19.6351 36.4543C21.5124 36.0368 23.365 35.5607 25.1907 35.0283ZM15.9222 37.1976L1.23366e-05 22.464L1.36575e-05 29.0309L9.7735 38.0747C11.8472 37.8516 13.8977 37.5583 15.9222 37.1976ZM5.63525 38.4243L1.44981e-05 33.2098L1.55818e-05 38.597C1.89377 38.597 3.77284 38.5389 5.63525 38.4243Z" fill="white" fill-opacity="0.25"/>
<path fill-rule="evenodd" clip-rule="evenodd" d="M10.63 193.52L17.7267 193.52L1.56033 178.56C1.16529 180.428 0.842835 182.321 0.59578 184.234L10.63 193.52ZM0.205841 188.052C0.0697558 189.858 0.000579979 191.682 0.000579834 193.52L6.11398 193.52L0.205841 188.052ZM2.37293 175.133L22.2427 193.52L29.3394 193.52L3.92734 170.005C3.34779 171.69 2.82886 173.4 2.37293 175.133ZM5.07817 166.891L33.8554 193.52L40.9521 193.52L7.11926 162.213C6.38597 163.746 5.70491 165.306 5.07817 166.891ZM8.55686 159.364L45.4681 193.52L52.5648 193.52L11.0205 155.077C10.1526 156.479 9.33079 157.909 8.55686 159.364ZM12.7126 152.464L57.0808 193.52L64.1774 193.52L15.5586 148.53C14.5681 149.813 13.6188 151.125 12.7126 152.464ZM17.4853 146.134L68.6935 193.52L75.7901 193.52L20.6901 142.533C19.5839 143.703 18.515 144.904 17.4853 146.134ZM22.8406 140.344L80.3062 193.52L83.7114 193.52L83.7114 190.104L26.3932 137.065C25.1741 138.125 23.9894 139.219 22.8406 140.344ZM28.7642 135.08L83.7114 185.925L83.7114 179.358L32.6647 132.122C31.3322 133.072 30.0314 134.059 28.7642 135.08ZM35.2597 130.345L83.7114 175.179L83.7114 168.612L39.5194 127.719C38.0692 128.555 36.6487 129.431 35.2597 130.345ZM42.3493 126.159L83.7114 164.433L83.7114 157.867L46.9922 123.889C45.4162 124.602 43.8679 125.359 42.3493 126.159ZM50.0773 122.564L83.7114 153.688L83.7114 147.121L55.1439 120.686C53.4282 121.262 51.7386 121.889 50.0773 122.564ZM58.5168 119.628L83.7114 142.942L83.7114 136.375L64.0721 118.202C62.1949 118.62 60.3423 119.096 58.5168 119.628ZM67.7847 117.458L83.7114 132.196L83.7114 125.629L73.9332 116.581C71.8596 116.804 69.8092 117.098 67.7847 117.458ZM78.0712 116.231L83.7114 121.45L83.7114 116.058C81.816 116.058 79.9353 116.117 78.0712 116.231Z" fill="white" fill-opacity="0.25"/>
</g>
</svg>
