<svg width="119" height="24" viewBox="0 0 119 24" fill="none" xmlns="http://www.w3.org/2000/svg">
<path d="M36.512 0.599998L29.184 23H23.616L18.688 7.832L13.6 23H8.064L0.704 0.599998H6.08L11.136 16.344L16.416 0.599998H21.216L26.336 16.472L31.552 0.599998H36.512ZM54.6368 14.456C54.6368 14.52 54.6048 14.968 54.5408 15.8H41.5168C41.7514 16.8667 42.3061 17.7093 43.1808 18.328C44.0554 18.9467 45.1434 19.256 46.4448 19.256C47.3408 19.256 48.1301 19.128 48.8128 18.872C49.5168 18.5947 50.1674 18.168 50.7648 17.592L53.4208 20.472C51.7994 22.328 49.4314 23.256 46.3168 23.256C44.3754 23.256 42.6581 22.8827 41.1648 22.136C39.6714 21.368 38.5194 20.312 37.7088 18.968C36.8981 17.624 36.4928 16.0987 36.4928 14.392C36.4928 12.7067 36.8874 11.192 37.6768 9.848C38.4874 8.48267 39.5861 7.42667 40.9728 6.68C42.3808 5.912 43.9488 5.528 45.6768 5.528C47.3621 5.528 48.8874 5.89067 50.2528 6.616C51.6181 7.34133 52.6848 8.38667 53.4528 9.752C54.2421 11.096 54.6368 12.664 54.6368 14.456ZM45.7088 9.304C44.5781 9.304 43.6288 9.624 42.8608 10.264C42.0928 10.904 41.6234 11.7787 41.4528 12.888H49.9328C49.7621 11.8 49.2928 10.936 48.5248 10.296C47.7568 9.63467 46.8181 9.304 45.7088 9.304ZM69.0323 23.384C66.7496 23.384 64.6803 22.8933 62.8243 21.912C60.9896 20.9093 59.5389 19.5333 58.4723 17.784C57.4269 16.0133 56.9043 14.0187 56.9043 11.8C56.9043 9.58133 57.4269 7.59733 58.4723 5.848C59.5389 4.07733 60.9896 2.70133 62.8243 1.72C64.6803 0.717333 66.7603 0.216 69.0643 0.216C71.0056 0.216 72.7549 0.557333 74.3123 1.24C75.8909 1.92267 77.2136 2.904 78.2803 4.184L74.9523 7.256C73.4376 5.50667 71.5603 4.632 69.3203 4.632C67.9336 4.632 66.6963 4.94133 65.6083 5.56C64.5203 6.15733 63.6669 7 63.0483 8.088C62.4509 9.176 62.1523 10.4133 62.1523 11.8C62.1523 13.1867 62.4509 14.424 63.0483 15.512C63.6669 16.6 64.5203 17.4533 65.6083 18.072C66.6963 18.6693 67.9336 18.968 69.3203 18.968C71.5603 18.968 73.4376 18.0827 74.9523 16.312L78.2803 19.384C77.2136 20.6853 75.8909 21.6773 74.3123 22.36C72.7336 23.0427 70.9736 23.384 69.0323 23.384ZM88.248 5.528C90.9147 5.528 92.9627 6.168 94.392 7.448C95.8213 8.70667 96.536 10.616 96.536 13.176V23H91.864V20.856C90.9253 22.456 89.176 23.256 86.616 23.256C85.2933 23.256 84.1413 23.032 83.16 22.584C82.2 22.136 81.464 21.5173 80.952 20.728C80.44 19.9387 80.184 19.0427 80.184 18.04C80.184 16.44 80.7813 15.1813 81.976 14.264C83.192 13.3467 85.0587 12.888 87.576 12.888H91.544C91.544 11.8 91.2133 10.968 90.552 10.392C89.8907 9.79467 88.8987 9.496 87.576 9.496C86.6587 9.496 85.752 9.64533 84.856 9.944C83.9813 10.2213 83.2347 10.6053 82.616 11.096L80.824 7.608C81.7627 6.94667 82.8827 6.43467 84.184 6.072C85.5067 5.70933 86.8613 5.528 88.248 5.528ZM87.864 19.896C88.7173 19.896 89.4747 19.704 90.136 19.32C90.7973 18.9147 91.2667 18.328 91.544 17.56V15.8H88.12C86.072 15.8 85.048 16.472 85.048 17.816C85.048 18.456 85.2933 18.968 85.784 19.352C86.296 19.7147 86.9893 19.896 87.864 19.896ZM111.518 5.528C113.651 5.528 115.369 6.168 116.67 7.448C117.993 8.728 118.654 10.6267 118.654 13.144V23H113.662V13.912C113.662 12.5467 113.363 11.5333 112.766 10.872C112.169 10.1893 111.305 9.848 110.174 9.848C108.915 9.848 107.913 10.2427 107.166 11.032C106.419 11.8 106.046 12.952 106.046 14.488V23H101.054V5.784H105.822V7.8C106.483 7.07467 107.305 6.52 108.286 6.136C109.267 5.73067 110.345 5.528 111.518 5.528Z" fill="white"/>
</svg>
